<?xml version="1.0" encoding="utf-8"?>
<!-- Generator: Adobe Illustrator 16.0.0, SVG Export Plug-In . SVG Version: 6.00 Build 0)  -->
<!DOCTYPE svg PUBLIC "-//W3C//DTD SVG 1.1//EN" "http://www.w3.org/Graphics/SVG/1.1/DTD/svg11.dtd">
<svg version="1.1" id="Layer_1" xmlns="http://www.w3.org/2000/svg" xmlns:xlink="http://www.w3.org/1999/xlink" x="0px" y="0px"
	 width="108px" height="26px" viewBox="0 0 108 26" enable-background="new 0 0 108 26" xml:space="preserve">
<path fill="#3CDDF3" d="M24.82,15.128C24.938,14.437,25,13.725,25,13c0-6.903-5.596-12.5-12.5-12.5
	c-4.186,0-7.892,2.058-10.16,5.217c1.268-0.175,2.521-0.094,3.763,0.221c3.134,0.796,5.799,3.029,7.959,4.848l0.172,0.145
	c2.288,1.926,4.146,3.491,6.139,4.231C21.665,15.643,23.079,15.795,24.82,15.128z M22.443,20.576
	C20.159,23.569,16.555,25.5,12.5,25.5C5.597,25.5,0,19.904,0,13c0-0.357,0.015-0.711,0.044-1.061
	c2.063-1.412,3.586-1.471,4.828-1.155c1.831,0.465,3.634,1.86,5.97,3.827c0.139,0.116,0.279,0.234,0.422,0.355l0,0
	c2.051,1.733,4.528,3.827,7.366,4.883C19.856,20.305,21.127,20.564,22.443,20.576z"/>
<path fill="#FFFFFF" d="M39.406,20.403c-1.128,0-2.105-0.212-2.93-0.638c-0.809-0.424-1.423-0.977-1.844-1.656
	C34.21,17.413,34,16.683,34,15.918v-0.152h3.41v0.152c0,0.459,0.177,0.866,0.53,1.223c0.354,0.357,0.868,0.535,1.541,0.535
	c0.556,0,1.002-0.127,1.339-0.382c0.354-0.271,0.53-0.637,0.53-1.096c0-0.407-0.151-0.73-0.455-0.968
	c-0.303-0.238-0.682-0.392-1.137-0.459l-1.516-0.307c-0.994-0.187-1.895-0.586-2.703-1.197c-0.809-0.611-1.212-1.538-1.212-2.778
	c0-1.274,0.463-2.268,1.389-2.981c0.926-0.731,2.113-1.096,3.562-1.096c1.061,0,1.979,0.196,2.753,0.586
	c0.775,0.391,1.364,0.909,1.769,1.555c0.404,0.628,0.606,1.308,0.606,2.039v0.102h-3.41v-0.077c0-0.408-0.151-0.781-0.455-1.121
	c-0.303-0.357-0.766-0.535-1.389-0.535c-0.522,0-0.943,0.136-1.263,0.408c-0.32,0.271-0.48,0.628-0.48,1.07
	c0,0.408,0.16,0.73,0.48,0.968c0.337,0.238,0.75,0.399,1.238,0.484l1.667,0.331c1.078,0.238,1.987,0.671,2.729,1.3
	c0.741,0.611,1.111,1.486,1.111,2.625c0,0.85-0.228,1.597-0.682,2.242s-1.086,1.147-1.895,1.504
	C41.267,20.233,40.382,20.403,39.406,20.403z"/>
<path fill="#FFFFFF" d="M53.833,20.403c-1.128,0-2.012-0.264-2.652-0.79c-0.64-0.527-1.111-1.104-1.415-1.732h-0.202V25.5h-3.511
	V6.744h3.511v2.09h0.202c0.27-0.578,0.724-1.122,1.364-1.631c0.64-0.526,1.532-0.79,2.677-0.79c1.701,0,3.007,0.637,3.915,1.912
	c0.927,1.274,1.39,2.981,1.39,5.122c0,2.089-0.463,3.772-1.39,5.046C56.814,19.766,55.518,20.403,53.833,20.403z M52.57,17.6
	c1.01,0,1.76-0.407,2.248-1.223c0.506-0.816,0.758-1.801,0.758-2.957c0-1.121-0.252-2.081-0.758-2.879
	c-0.488-0.816-1.238-1.224-2.248-1.224c-0.994,0-1.743,0.408-2.249,1.224c-0.505,0.815-0.758,1.784-0.758,2.905
	c0,1.138,0.253,2.115,0.758,2.931C50.827,17.192,51.577,17.6,52.57,17.6z"/>
<path fill="#FFFFFF" d="M66.795,20.403c-1.398,0-2.576-0.314-3.537-0.943c-0.942-0.646-1.65-1.495-2.121-2.548
	c-0.472-1.054-0.707-2.209-0.707-3.466c0-1.257,0.227-2.412,0.682-3.466c0.471-1.07,1.188-1.928,2.146-2.574
	c0.961-0.646,2.139-0.968,3.537-0.968c1.397,0,2.576,0.323,3.536,0.968c0.96,0.628,1.676,1.47,2.147,2.523
	c0.471,1.053,0.707,2.208,0.707,3.466s-0.236,2.421-0.707,3.492c-0.472,1.053-1.188,1.902-2.147,2.548S68.192,20.403,66.795,20.403z
	 M66.795,17.549c0.977,0,1.709-0.391,2.197-1.172c0.506-0.799,0.758-1.793,0.758-2.982c0-1.189-0.252-2.166-0.758-2.931
	c-0.488-0.782-1.221-1.172-2.197-1.172s-1.709,0.391-2.197,1.172c-0.488,0.765-0.733,1.741-0.733,2.931
	c0,1.189,0.245,2.183,0.733,2.982C65.102,17.158,65.835,17.549,66.795,17.549z"/>
<path fill="#FFFFFF" d="M74.876,6.744h3.46v2.141h0.178c0.219-0.595,0.623-1.096,1.213-1.503C80.315,6.956,81.073,6.744,82,6.744
	c0.354,0,0.656,0.034,0.908,0.102l-0.15,3.236c-0.422-0.119-0.867-0.178-1.34-0.178c-1.043,0-1.818,0.28-2.324,0.841
	c-0.504,0.543-0.758,1.453-0.758,2.727v6.728h-3.46V6.744z"/>
<path fill="#FFFFFF" d="M88.661,9.496v5.988c0,0.595,0.025,1.037,0.075,1.326c0.068,0.288,0.236,0.518,0.506,0.688
	s0.707,0.255,1.313,0.255c0.354,0,0.716-0.034,1.086-0.103v2.447c-0.185,0.033-0.522,0.076-1.011,0.127
	c-0.471,0.051-0.934,0.076-1.389,0.076c-1.229,0-2.147-0.178-2.754-0.535c-0.589-0.373-0.959-0.832-1.111-1.376
	c-0.151-0.561-0.227-1.274-0.227-2.141V9.496h-2.224V6.744h2.249V2.36h3.485v4.383h2.98v2.752H88.661z"/>
<path fill="#FFFFFF" d="M93.812,6.744h3.485v13.456h-3.485V6.744z M95.529,4.425c-0.556,0-1.019-0.187-1.389-0.561
	c-0.371-0.391-0.557-0.858-0.557-1.401c0-0.561,0.186-1.028,0.557-1.402c0.37-0.374,0.833-0.561,1.389-0.561s1.02,0.195,1.39,0.586
	c0.37,0.374,0.556,0.833,0.556,1.376c0,0.543-0.186,1.011-0.556,1.401C96.549,4.238,96.085,4.425,95.529,4.425z"/>
<path fill="#FFFFFF" d="M104.703,9.496v5.988c0,0.595,0.025,1.037,0.076,1.326c0.068,0.288,0.236,0.518,0.505,0.688
	c0.271,0.17,0.708,0.255,1.313,0.255c0.354,0,0.717-0.034,1.086-0.103v2.447c-0.185,0.033-0.521,0.076-1.01,0.127
	c-0.472,0.051-0.936,0.076-1.39,0.076c-1.229,0-2.147-0.178-2.753-0.535c-0.59-0.373-0.961-0.832-1.111-1.376
	c-0.152-0.561-0.229-1.274-0.229-2.141V9.496h-2.223V6.744h2.249V2.36h3.485v4.383h2.98v2.752H104.703z"/>
</svg>
